<svg id="Layer_1" data-name="Layer 1" xmlns="http://www.w3.org/2000/svg" viewBox="0 0 425.2 425.2"><title>lcf </title><path d="M51.44,324.87V100.79h15V310.46H129.6v14.41Z"/><path d="M223.71,111.67q-25.29,0-40.23,26.75t-14.94,74.1q0,30.81,6.9,53.64t19.77,35.1q12.87,12.26,29.89,12.26,17.47,0,30-6.28V321q-12,6.9-31.42,6.9a55.43,55.43,0,0,1-37.32-13.79q-16-13.79-24.75-39.93t-8.74-62q0-53.64,19.08-84.3t52-30.65q20.54,0,35.86,9.5L253,119.95A53,53,0,0,0,223.71,111.67Z"/><path d="M307.24,324.87h-15V100.79h81.54V115.2H307.24v95h62.84v14.56H307.24Z"/></svg>